<svg width="9" height="10" viewBox="0 0 9 10" fill="none" xmlns="http://www.w3.org/2000/svg">
<path d="M7.49578 6.28579V7.42864C7.49578 7.74418 7.23078 8.00007 6.90401 8.00007H2.16984C1.84308 8.00007 1.57807 7.74418 1.57807 7.42864V6.28579C1.57807 5.97025 1.31307 5.71436 0.986302 5.71436C0.659534 5.71436 0.394531 5.97025 0.394531 6.28579V7.42864C0.394531 8.37543 1.18935 9.14293 2.16984 9.14293H6.90401C7.8845 9.14293 8.67932 8.37543 8.67932 7.42864V6.28579C8.67932 5.97025 8.41432 5.71436 8.08755 5.71436C7.76078 5.71436 7.49578 5.96972 7.49578 6.28579ZM4.11899 0.167486L1.75191 2.4532C1.52056 2.67659 1.52093 3.0382 1.75191 3.26124C1.98307 3.48445 2.35755 3.48445 2.58871 3.26124L3.94516 1.95186V5.71436C3.94516 6.03025 4.20979 6.28579 4.53693 6.28579C4.86406 6.28579 5.1287 6.03025 5.1287 5.71436V1.95186L6.4857 3.26222C6.71686 3.48543 7.09134 3.48543 7.3225 3.26222C7.55366 3.039 7.55366 2.6774 7.3225 2.45418L4.95542 0.168469C4.7237 -0.0557278 4.35015 -0.0557278 4.11899 0.167486Z" fill="#7455F7"/>
</svg>
