<?xml version="1.0" encoding="UTF-8"?>
<svg width="375px" height="667px" version="1.1" viewBox="0 0 375 667" xmlns="http://www.w3.org/2000/svg">
    <path fill="none" fill-rule="evenodd" opacity="1" stroke-linecap="round" stroke="#ffffff"
        stroke-width="28.312" transform="translate(-175 -5)"
        d="m287.87 233.49c22.228-23.214 43.466-47.517 61.535-74.128 16.333-24.052 39.31-57.29 31.61-87.981-6.2623-24.95-37.262-39.6-59.148-48.213-30.294-11.923-63.055-15.456-95.24-18.375-42.325-3.8364-84.943-7.1326-127.23-0.91866-31.999 4.7032-74.883 17.467-78.125 55.717-1.9624 23.162-3.2406 49.638 121.78 219.84 14.273 19.431 26.666 36.678 37.491 52.124 6.4873 9.2599 12.41 17.873 17.836 25.921 47.874 71.026 56.984 98.17 73.032 138.51 23.339 58.666-14.444 124.43-78.993 157.49-8.7834 4.5002-62.533 26.249-128.36 16.406-36.391-5.4433-68.397-30.136-62.536-62.343 5.1066-28.054 44.898-68.747 174.44-108.28 55.586-16.962 111.11-34.255 167.53-48.328 50.908-12.698 102.55-22.138 153.24-35.796 51.103-13.769 140.12-58.7 179.94-95.349" />
</svg>